<?xml version="1.0" standalone="no"?>
<!DOCTYPE svg PUBLIC "-//W3C//DTD SVG 20010904//EN"
 "http://www.w3.org/TR/2001/REC-SVG-20010904/DTD/svg10.dtd">
<svg version="1.0" xmlns="http://www.w3.org/2000/svg"
 width="232.000000pt" height="232.000000pt" viewBox="0 0 232.000000 232.000000"
 preserveAspectRatio="xMidYMid meet">
<metadata>
Created by potrace 1.14, written by Peter Selinger 2001-2017
</metadata>
<g transform="translate(0.000000,232.000000) scale(0.100000,-0.100000)"
fill="#000000" stroke="none">
<path d="M1131 2211 c-36 -35 -83 -57 -140 -66 -21 -3 -52 -10 -69 -15 -18 -5
-32 -7 -32 -4 0 8 -85 -38 -92 -50 -4 -6 -8 -7 -8 -3 0 4 -11 -5 -25 -20 -40
-45 -42 -48 -49 -71 -4 -12 -12 -20 -17 -17 -5 4 -9 -4 -9 -17 0 -43 -14 -52
-87 -53 -43 -1 -81 -8 -102 -20 -32 -16 -110 -92 -111 -107 0 -12 -97 -107
-103 -101 -4 3 -9 -2 -13 -11 -3 -9 -11 -16 -18 -16 -6 0 -24 -11 -40 -25 -16
-14 -33 -25 -38 -25 -5 0 -6 -10 -2 -22 18 -57 20 -242 3 -273 -16 -29 -15
-222 2 -242 1 -2 2 -7 3 -12 0 -5 11 -21 23 -35 13 -14 20 -26 17 -26 -3 0 5
-10 18 -22 34 -33 46 -66 46 -121 0 -68 10 -114 38 -169 25 -50 34 -62 93
-126 34 -38 79 -118 87 -156 3 -11 7 -43 9 -69 3 -27 7 -52 10 -57 3 -4 31
-11 62 -15 68 -8 233 -85 233 -108 0 -5 4 -6 9 -2 5 3 15 -1 23 -8 7 -7 22
-17 33 -22 53 -22 155 -33 155 -16 0 6 3 11 8 10 4 -1 16 2 27 5 11 4 24 6 29
6 5 -1 12 3 15 8 16 27 86 16 171 -26 27 -14 88 -14 112 -1 13 8 25 14 28 15
17 4 53 23 46 23 -16 1 180 98 212 106 17 3 45 8 63 10 40 5 43 9 46 48 5 74
10 95 34 155 9 24 56 87 94 128 83 88 102 141 104 285 1 36 7 52 32 80 76 84
84 103 83 213 0 56 -4 117 -9 136 -11 49 -13 219 -2 253 10 31 -12 77 -38 77
-7 0 -20 6 -27 13 -7 6 -29 23 -48 36 -19 13 -62 58 -95 102 -33 43 -66 78
-72 78 -7 1 -13 6 -13 11 0 6 -7 10 -15 10 -8 0 -15 4 -15 8 0 5 -6 9 -12 10
-7 1 -45 4 -84 8 l-71 6 -18 41 c-19 42 -65 115 -65 103 0 -4 -12 6 -26 23
-14 17 -28 30 -32 29 -4 0 -24 6 -44 16 -21 9 -41 16 -45 15 -5 -1 -10 -1 -13
1 -3 1 -16 3 -30 6 -73 13 -146 36 -153 49 -4 8 -15 15 -23 15 -8 0 -18 10
-23 21 -7 21 -8 21 -40 -10z"/>
</g>
</svg>
